<?xml version="1.0" encoding="UTF-8"?>
<svg id="Calque_2" data-name="Calque 2" xmlns="http://www.w3.org/2000/svg" viewBox="0 0 217.27 155.42">
  <defs>
    <style>
      .cls-1 {
        stroke-width: 0px;
      }
    </style>
  </defs>
  <g id="Calque_1-2" data-name="Calque 1">
    <g>
      <path class="cls-1" d="m211.19,0c2.01,5.31,3.98,10.51,6.07,16.04-1.2.75-2.33,1.46-3.45,2.17-19.49,12.44-31.6,29.96-36.38,52.54-.84,3.97-.25,7.31,2.5,10.69,6.77,8.31,12.85,17.17,19.7,25.4,3.3,3.96,3.63,7.8,2.56,12.39-4.06,17.46-20.33,32.45-38.58,35.43-32.76,5.35-47.82-18.73-48.11-40.15-.48-35.32,14.47-63.43,41.24-85.72,15.42-12.84,33.13-21.64,52.01-28.22.69-.24,1.42-.34,2.44-.57Z"/>
      <path class="cls-1" d="m95.73.06c2.03,5.39,3.98,10.6,5.87,15.63-4.91,3.66-9.92,6.78-14.21,10.68-13.17,11.98-22.04,26.55-25.45,44.19-.8,4.12-.24,7.53,2.59,11.02,7.31,8.99,14.24,18.3,21.13,27.61,1.06,1.43,1.73,3.65,1.57,5.41-1.71,19.27-19.06,36.82-39.33,40.08C15.57,159.88.33,136.24.01,114.67-.53,77.52,15.86,48.6,44.63,26.08,58.76,15.02,82.44,3.13,95.73.06Z"/>
    </g>
  </g>
</svg>