<?xml version="1.0" encoding="UTF-8"?>
<svg id="Calque_2" data-name="Calque 2" xmlns="http://www.w3.org/2000/svg" viewBox="0 0 395.86 116.09">
  <defs>
    <style>
      .cls-1 {
        fill: #fff;
      }

      .cls-1, .cls-2 {
        stroke-width: 0px;
      }

      .cls-2 {
        fill: #1d1d1b;
      }
    </style>
  </defs>
  <g id="Calque_1-2" data-name="Calque 1">
    <path class="cls-1" d="m124.95,116.09c-21.29-.07-42.58-.15-63.87-.19-16.47-.03-32.94.03-49.41-.04-7.73-.03-11.64-3.99-11.64-11.72C0,73.39,0,42.63.02,11.88.02,3.87,3.87.18,12.08.15c19.63-.06,39.26-.1,58.89-.15,1.99.06,3.99.18,5.98.18,101.77,0,203.54-.02,305.31-.04,10.52,0,13.6,3.11,13.6,13.71,0,29.79,0,59.58-.02,89.37,0,8.93-3.7,12.66-12.58,12.65-84.11,0-168.23-.02-252.34-.03-1.99,0-3.98.15-5.97.24Zm-85.92-21.08c1.59,0,4.43.14,7.25-.03,4.55-.29,9.38-3.77,9.61-6.83.85-11.3.67-22.59-.1-33.89-.15-2.18-.69-3.18-3.17-3.28-6.14-.23-12.27-1.12-18.41-1.17-4.41-.03-6.33-1.68-6.04-6,.17-2.57-1.62-6.04.88-7.49,2.97-1.72,6.92-1.03,10.22-.16,2.12.56,1.87,3.4,1.68,5.27-.36,3.42,1.27,3.69,4.08,3.6,11.48-.36,11.48-.28,11.04-11.99-.06-1.66-.02-3.33-.14-4.99-.21-2.87-1.46-4.93-4.51-5.62-8.9-1.99-17.71-2.32-26.5.68-2.12.72-2.66,1.9-2.95,3.94-1.38,9.79-.75,19.57-.19,29.37.13,2.3,1.18,3.07,3.16,3.66,4.72,1.42,9.56,1.05,14.36,1.23,2.47.1,3.55.74,3.24,3.54-.4,3.62-.54,7.34-.2,10.96.42,4.5-.85,6.12-5.61,5.42-2.8-.41-3.76-1.19-3.6-3.92.16-2.65-.03-5.32-.06-7.98-.01-1.21-.16-1.98-1.69-2.47-8.15-2.63-10.33-1.26-10.72,7.1-.05,1-.18,1.99-.21,2.98-.37,15.37,1.07,18.74,18.56,18.04Zm252.19-20.38c-.4-16.63-2.18-33.15-3.28-49.72-.11-1.71-.35-2.79-2.48-2.74-6.31.14-12.55-1.1-18.92-.63-3.69.27-4.97,1.72-5.47,5.2-3.06,21.2-5.26,42.49-6.97,63.84-.13,1.6-1.43,4.79,2.15,4.07,2.66-.53,7.19,2.35,7.67-3.47.43-5.29,1.33-10.55,1.65-15.84.18-2.89,1.35-3.23,3.95-3.39,4.51-.27,6.36,1.3,5.89,5.81-.17,1.63.25,3.31.31,4.96.45,12.16.43,12.06,12.48,11.42,2.76-.14,3.22-1.03,3.1-3.56-.24-5.31-.07-10.63-.07-15.95Zm22.22,3.63c.65-1.69,1.03-2.75,1.47-3.78,5.55-12.95,11.09-25.89,16.66-38.83,1.39-3.24,2.02-6.64,2.28-10.11.16-2.08-.44-3.35-2.97-3.55-10.13-.79-20.27-.99-30.4-.34-5.25.34-1.96,4.59-2.7,6.95-.81,2.62.96,2.73,3.13,2.69,5.43-.09,10.78-1.71,16.56-.98-.71,1.91-1.27,3.62-1.96,5.28-6.31,15.3-12.56,30.62-19.01,45.86-1.93,4.57-.92,9.11.72,13.01,1.01,2.39,5.16.58,7.88.71,3.65.17,7.32.07,10.97-.14,5.09-.29,11.8,2.22,14.82-1.17,2.92-3.28.62-9.85.84-14.97,0-.17-.02-.33,0-.5.32-2.54-.31-3.54-3.23-2.86-4.79,1.13-9.7,1.78-15.08,2.72Zm46.01-48.36c-6.86,16.52-13.21,32.29-20,47.87-2.1,4.82-2.64,9.36-1.6,14.42.51,2.49,1.43,3.3,3.89,3.24,9.31-.23,18.62-.34,27.94-.37,2.42,0,3.67-.55,3.55-3.32-.19-4.48-.18-8.98,0-13.46.12-2.98-1.02-3.12-3.57-2.56-4.7,1.03-9.49,1.61-14.78,2.46,4.64-10.8,9.05-20.8,13.22-30.89,2.71-6.55,6.48-12.75,7.14-20.03.18-1.98,1.18-4.74-2-5.08-10.6-1.14-21.27-1.37-31.87-.38-4.09.38-1.64,4.59-2.19,7.03-.52,2.34.9,2.68,2.95,2.47,5.44-.54,10.9-.89,17.32-1.38Zm-120.59,6.8c-.6,14.17-1.21,28.45-1.83,42.72-.05,1.25.35,2.89-1.75,2.85-1.97-.04-2.44-1.36-2.41-3.05.02-1.83,0-3.66,0-5.49q0-12.74-12.76-11.63c-.17.01-.33.02-.5,0-1.95-.1-2.54.92-2.59,2.75-.21,7.48-.78,14.96-.73,22.43.04,5.56,2.58,7.67,8.19,7.72,6.33.05,12.66-.14,18.99.08,2.76.09,4.57-.85,5.33-3.33.62-2.04,1.1-4.24,1.05-6.36-.46-20.12-1.11-40.23-1.54-60.35-.06-2.9-1.36-3.16-3.68-3.11-4.99.12-10,.18-14.99-.01-9.08-.34-9.08-.43-8.58,8.67.05.83.18,1.66.19,2.48.02,2.08,1.06,2.86,3.11,2.92,4.76.14,9.52.44,14.51.69Zm-91.36-14.05c.81,2.75,1.5,5.61,2.49,8.36,3.68,10.27,5.76,21.09,10.51,30.96,1.05,2.18,1.83,4.13,1.51,6.57-.97,7.57-1.68,15.19-2.82,22.73-.48,3.15.22,4.14,3.43,3.84,3.47-.32,7.01-.5,10.47-.18,4.3.39,4.92-1.46,5.16-5.33.8-12.67-.95-25.59,3.71-37.94,2.28-6.04,4.23-12.24,5.72-18.51.93-3.92,4.74-8.94,2.41-11.34-2.05-2.11-7.88-.39-12.01-.72-2.94-.24-3.66,1.09-3.87,3.62-.65,7.78-1.5,15.54-2.13,23.32-.25,3.09-.98,5.92-3.02,9.13-1.45-7.83-2.69-15.01-4.13-22.14-.91-4.51.11-10.62-3.14-13.11-3.28-2.51-8.91.27-13.53.37-.15,0-.3.14-.75.37Zm-61.34,36.54c.32,0,.64,0,.96,0,0,10.47.11,20.95-.06,31.42-.06,3.47,1.1,4.66,4.57,4.46,7.64-.43,15.29-.75,22.94-.75,2.95,0,3.47-1.04,3.57-3.68.28-7.01.42-6.99-6.44-7.64-.99-.09-1.96-.52-2.93-.51-4.12,0-4.95-2.04-4.88-5.93.27-14.13.17-28.28.07-42.41-.03-4.11,1.83-9.58-.81-11.94-2.14-1.91-7.56.14-11.48-.16-4.14-.32-5.57,1.28-5.53,5.24.11,10.63.04,21.27.04,31.9Zm53.13-7.31c0-8.65-.13-17.3.07-25.95.08-3.41-.68-4.9-4.43-4.27-2.93.49-5.99.64-8.96.41-3.31-.26-4.33,1.07-4.27,4.14.4,22.1.78,44.2,1.06,66.3.04,3.03,2.02,2.53,3.72,2.48,7.65-.2,15.3-.77,22.94-.63,3.59.07,4.08-1.54,4.3-4.33.5-6.48.56-6.44-5.86-6.99-1.48-.13-2.95-.84-4.4-.77-3.71.17-4.3-1.73-4.23-4.94.18-8.48.06-16.97.06-25.45Zm-76.16,13.71s-.09,0-.13,0c0,5.66-.02,11.31,0,16.97.05,11.66.06,11.51,11.62,11.66,3.52.04,4.36-.99,4.48-4.43.43-12.64-.12-25.24-.8-37.85-.21-3.89,2.6-9.08-.25-11.31-2.53-1.98-7.66-.56-11.63-.86-2.65-.2-3.41.78-3.35,3.37.16,7.48.05,14.97.05,22.45Zm7.79-30.65c2.46-.88,6.29,1.39,7.75-1.02,2.05-3.4,1.39-7.81.36-11.67-.86-3.2-4.02-1.8-5.99-1.78-12.35.12-10.27-2.62-10.09,11.39.03,2.37.91,3.31,3.27,3.11,1.48-.13,2.99-.02,4.71-.02Z"/>
    <path class="cls-2" d="m39.03,95c-17.5.7-18.93-2.67-18.56-18.04.02-1,.16-1.99.21-2.98.39-8.36,2.58-9.74,10.72-7.1,1.53.49,1.68,1.27,1.69,2.47.03,2.66.22,5.33.06,7.98-.17,2.73.8,3.51,3.6,3.92,4.76.7,6.03-.92,5.61-5.42-.34-3.62-.19-7.33.2-10.96.31-2.8-.77-3.45-3.24-3.54-4.8-.19-9.64.18-14.36-1.23-1.97-.59-3.03-1.36-3.16-3.66-.56-9.8-1.19-19.57.19-29.37.29-2.04.82-3.22,2.95-3.94,8.79-3,17.6-2.67,26.5-.68,3.05.68,4.3,2.74,4.51,5.62.12,1.66.08,3.33.14,4.99.44,11.71.44,11.63-11.04,11.99-2.8.09-4.43-.17-4.08-3.6.19-1.87.44-4.71-1.68-5.27-3.31-.87-7.25-1.56-10.22.16-2.51,1.45-.71,4.92-.88,7.49-.29,4.32,1.62,5.97,6.04,6,6.14.04,12.27.94,18.41,1.17,2.48.09,3.02,1.09,3.17,3.28.77,11.3.95,22.59.1,33.89-.23,3.06-5.06,6.55-9.61,6.83-2.82.18-5.66.03-7.25.03Z"/>
    <path class="cls-2" d="m291.22,74.62c0,5.32-.17,10.64.07,15.95.12,2.53-.34,3.42-3.1,3.56-12.04.63-12.03.74-12.48-11.42-.06-1.66-.48-3.34-.31-4.96.47-4.52-1.38-6.08-5.89-5.81-2.6.16-3.77.5-3.95,3.39-.32,5.3-1.22,10.55-1.65,15.84-.48,5.82-5.01,2.94-7.67,3.47-3.58.72-2.28-2.46-2.15-4.07,1.72-21.34,3.91-42.63,6.97-63.84.5-3.48,1.78-4.93,5.47-5.2,6.37-.47,12.61.78,18.92.63,2.13-.05,2.37,1.03,2.48,2.74,1.1,16.57,2.88,33.09,3.28,49.72Zm-24.82-25.1c-.15,0-.3,0-.46,0,0,3.14,0,6.28,0,9.42,0,1.43-.32,3.56,2.03,2.73,2.58-.91,7.15,2.16,7.6-2.77.57-6.24-.26-12.5-1.95-18.63-.86-3.13-3.26-2.23-5.19-2.37-2.65-.19-1.47,2.07-1.6,3.22-.33,2.78-.32,5.6-.44,8.41Z"/>
    <path class="cls-2" d="m313.43,78.25c5.38-.94,10.29-1.59,15.08-2.72,2.92-.69,3.56.32,3.23,2.86-.02.16,0,.33,0,.5-.22,5.12,2.08,11.69-.84,14.97-3.02,3.39-9.73.88-14.82,1.17-3.65.21-7.32.31-10.97.14-2.72-.13-6.87,1.69-7.88-.71-1.64-3.9-2.65-8.44-.72-13.01,6.45-15.24,12.7-30.56,19.01-45.86.69-1.66,1.25-3.37,1.96-5.28-5.79-.74-11.13.89-16.56.98-2.17.04-3.94-.08-3.13-2.69.73-2.37-2.56-6.62,2.7-6.95,10.13-.65,20.26-.44,30.4.34,2.52.2,3.12,1.47,2.97,3.55-.26,3.48-.89,6.88-2.28,10.11-5.57,12.94-11.12,25.88-16.66,38.83-.44,1.03-.82,2.1-1.47,3.78Z"/>
    <path class="cls-2" d="m359.45,29.89c-6.42.5-11.88.85-17.32,1.38-2.05.2-3.47-.14-2.95-2.47.55-2.43-1.91-6.64,2.19-7.03,10.6-.99,21.27-.75,31.87.38,3.18.34,2.18,3.1,2,5.08-.66,7.28-4.43,13.48-7.14,20.03-4.18,10.1-8.59,20.1-13.22,30.89,5.29-.85,10.09-1.43,14.78-2.46,2.55-.56,3.69-.42,3.57,2.56-.17,4.48-.19,8.98,0,13.46.12,2.77-1.12,3.31-3.55,3.32-9.31.03-18.63.15-27.94.37-2.47.06-3.38-.74-3.89-3.24-1.04-5.06-.5-9.6,1.6-14.42,6.79-15.58,13.14-31.36,20-47.87Z"/>
    <path class="cls-2" d="m238.86,36.68c-4.99-.25-9.75-.55-14.51-.69-2.05-.06-3.09-.84-3.11-2.92,0-.83-.15-1.66-.19-2.48-.5-9.1-.5-9.02,8.58-8.67,4.99.19,9.99.13,14.99.01,2.32-.06,3.62.21,3.68,3.11.43,20.12,1.08,40.23,1.54,60.35.05,2.12-.43,4.32-1.05,6.36-.76,2.48-2.56,3.42-5.33,3.33-6.32-.22-12.66-.03-18.99-.08-5.61-.04-8.16-2.16-8.19-7.72-.05-7.48.52-14.95.73-22.43.05-1.83.64-2.85,2.59-2.75.17,0,.33,0,.5,0q12.76-1.11,12.76,11.63c0,1.83.02,3.66,0,5.49-.02,1.69.44,3.01,2.41,3.05,2.1.04,1.7-1.6,1.75-2.85.62-14.28,1.22-28.55,1.83-42.72Z"/>
    <path class="cls-2" d="m147.5,22.63c.45-.23.6-.37.75-.37,4.62-.1,10.25-2.88,13.53-.37,3.25,2.49,2.23,8.6,3.14,13.11,1.44,7.13,2.68,14.31,4.13,22.14,2.05-3.21,2.77-6.04,3.02-9.13.63-7.78,1.49-15.54,2.13-23.32.21-2.53.93-3.86,3.87-3.62,4.13.33,9.95-1.39,12.01.72,2.34,2.4-1.47,7.42-2.41,11.34-1.49,6.27-3.45,12.47-5.72,18.51-4.65,12.35-2.91,25.26-3.71,37.94-.24,3.87-.86,5.73-5.16,5.33-3.46-.32-7-.14-10.47.18-3.21.3-3.91-.69-3.43-3.84,1.15-7.55,1.85-15.16,2.82-22.73.31-2.43-.46-4.38-1.51-6.57-4.75-9.88-6.83-20.7-10.51-30.96-.99-2.75-1.68-5.61-2.49-8.36Z"/>
    <path class="cls-2" d="m86.16,59.18c0-10.63.07-21.27-.04-31.9-.04-3.96,1.39-5.56,5.53-5.24,3.92.3,9.34-1.75,11.48.16,2.64,2.36.78,7.82.81,11.94.11,14.14.2,28.28-.07,42.41-.07,3.89.75,5.94,4.88,5.93.98,0,1.95.42,2.93.51,6.86.65,6.72.63,6.44,7.64-.11,2.65-.62,3.68-3.57,3.68-7.65,0-15.3.31-22.94.75-3.46.2-4.62-.99-4.57-4.46.17-10.47.06-18.32.06-28.79,0-1.5-.89-1.69-.96-2.63Z"/>
    <path class="cls-2" d="m139.29,51.87c0,8.48.12,16.97-.06,25.45-.07,3.2.52,5.11,4.23,4.94,1.45-.07,2.92.65,4.4.77,6.43.55,6.37.51,5.86,6.99-.22,2.79-.71,4.39-4.3,4.33-7.64-.14-15.29.43-22.94.63-1.7.04-3.68.55-3.72-2.48-.28-22.1-.65-44.2-1.06-66.3-.06-3.07.96-4.4,4.27-4.14,2.96.23,6.02.08,8.96-.41,3.74-.63,4.51.87,4.43,4.27-.2,8.65-.07,17.3-.07,25.95Z"/>
    <path class="cls-2" d="m63.12,65.58c0-7.48.1-14.97-.05-22.45-.05-2.6.71-3.57,3.35-3.37,3.97.29,9.1-1.13,11.63.86,2.85,2.23.04,7.42.25,11.31.68,12.61,1.23,25.21.8,37.85-.12,3.44-.96,4.48-4.48,4.43-11.56-.14-11.57,0-11.62-11.66-.02-5.66,0-11.31,0-16.97.04,0,.09,0,.13,0Z"/>
    <path class="cls-2" d="m70.91,34.93c-1.72,0-3.23-.11-4.71.02-2.35.21-3.23-.74-3.27-3.11-.18-14.02-2.26-11.27,10.09-11.39,1.97-.02,5.14-1.43,5.99,1.78,1.03,3.86,1.69,8.28-.36,11.67-1.46,2.42-5.29.14-7.75,1.02Z"/>
    <path class="cls-1" d="m266.4,49.52c.13-2.81.12-5.63.44-8.41.13-1.15-1.04-3.4,1.6-3.22,1.93.14,4.33-.76,5.19,2.37,1.69,6.12,2.52,12.39,1.95,18.63-.45,4.93-5.03,1.86-7.6,2.77-2.35.83-2.03-1.3-2.03-2.73,0-3.14,0-6.28,0-9.42.15,0,.3,0,.46,0Z"/>
  </g>
</svg>